<svg width="106" height="92" viewBox="0 0 106 92" fill="none" xmlns="http://www.w3.org/2000/svg">
<path d="M39.4286 29.571C39.4286 32.1853 38.3901 34.6925 36.5415 36.5411C34.693 38.3896 32.1858 39.4282 29.5715 39.4282C26.9572 39.4282 24.45 38.3896 22.6014 36.5411C20.7529 34.6925 19.7144 32.1853 19.7144 29.571C19.7144 26.9567 20.7529 24.4495 22.6014 22.601C24.45 20.7524 26.9572 19.7139 29.5715 19.7139C32.1858 19.7139 34.693 20.7524 36.5415 22.601C38.3901 24.4495 39.4286 26.9567 39.4286 29.571Z" fill="#CECECE"/>
<path d="M13.1429 0C9.65715 0 6.31422 1.38469 3.84945 3.84945C1.38469 6.31422 0 9.65716 0 13.1429V78.8571C0 82.3428 1.38469 85.6858 3.84945 88.1505C6.31422 90.6153 9.65715 92 13.1429 92H92C95.4857 92 98.8286 90.6153 101.293 88.1505C103.758 85.6858 105.143 82.3428 105.143 78.8571V13.1429C105.143 9.65716 103.758 6.31422 101.293 3.84945C98.8286 1.38469 95.4857 0 92 0H13.1429ZM92 6.57143C93.7428 6.57143 95.4143 7.26377 96.6467 8.49616C97.8791 9.72854 98.5714 11.4 98.5714 13.1429V55.8571L73.7511 43.0626C73.1349 42.7539 72.4372 42.6468 71.7567 42.7565C71.0762 42.8661 70.4475 43.187 69.9594 43.6737L45.5794 68.0537L28.0994 56.4091C27.4683 55.989 26.7113 55.8 25.9567 55.8742C25.2022 55.9485 24.4965 56.2814 23.9594 56.8166L6.57143 72.2857V13.1429C6.57143 11.4 7.26377 9.72854 8.49616 8.49616C9.72854 7.26377 11.4 6.57143 13.1429 6.57143H92Z" fill="#CECECE"/>
</svg>
