<svg width="14" height="14" viewBox="0 0 14 14" fill="none" xmlns="http://www.w3.org/2000/svg">
<path d="M7.00001 3.5C5.06801 3.5 3.5 5.06801 3.5 7.00001C3.5 8.93201 5.06801 10.5 7.00001 10.5C8.93201 10.5 10.5 8.93197 10.5 6.99997C10.5 5.06798 8.93201 3.5 7.00001 3.5Z" fill="#DE4132"/>
<path d="M6.99998 0C3.13251 0 0 3.13251 0 6.99998C0 10.8675 3.13251 14 6.99998 14C10.8675 14 14 10.8675 14 6.99998C14 3.13248 10.8675 0 6.99998 0ZM6.99998 12.6C3.906 12.6 1.39998 10.094 1.39998 6.99998C1.39998 3.90596 3.906 1.40001 6.99998 1.40001C10.094 1.40001 12.6 3.906 12.6 6.99998C12.6 10.094 10.094 12.6 6.99998 12.6Z" fill="#DE4132"/>
</svg>
