<svg width="30" height="30" viewBox="0 0 30 30" fill="none" xmlns="http://www.w3.org/2000/svg">
<circle cx="15" cy="15" r="15" fill="#376AF5"/>
<path d="M15 14.3C15.9283 14.3 16.8185 14.6687 17.4749 15.3251C18.1313 15.9815 18.5 16.8717 18.5 17.8V22H11.5V17.8C11.5 16.8717 11.8687 15.9815 12.5251 15.3251C13.1815 14.6687 14.0717 14.3 15 14.3ZM10.3016 16.4042C10.1902 16.78 10.1244 17.1677 10.1056 17.5592L10.1 17.8V22H8V18.85C7.99986 18.2463 8.22262 17.6638 8.62554 17.2142C9.02847 16.7647 9.58319 16.4797 10.1833 16.414L10.3023 16.4042H10.3016ZM19.6984 16.4042C20.3213 16.4422 20.9063 16.7164 21.334 17.1709C21.7617 17.6254 21.9999 18.2259 22 18.85V22H19.9V17.8C19.9 17.3149 19.83 16.8466 19.6984 16.4042ZM10.45 12.2C10.9141 12.2 11.3592 12.3844 11.6874 12.7126C12.0156 13.0408 12.2 13.4859 12.2 13.95C12.2 14.4141 12.0156 14.8592 11.6874 15.1874C11.3592 15.5156 10.9141 15.7 10.45 15.7C9.98587 15.7 9.54075 15.5156 9.21256 15.1874C8.88437 14.8592 8.7 14.4141 8.7 13.95C8.7 13.4859 8.88437 13.0408 9.21256 12.7126C9.54075 12.3844 9.98587 12.2 10.45 12.2ZM19.55 12.2C20.0141 12.2 20.4592 12.3844 20.7874 12.7126C21.1156 13.0408 21.3 13.4859 21.3 13.95C21.3 14.4141 21.1156 14.8592 20.7874 15.1874C20.4592 15.5156 20.0141 15.7 19.55 15.7C19.0859 15.7 18.6408 15.5156 18.3126 15.1874C17.9844 14.8592 17.8 14.4141 17.8 13.95C17.8 13.4859 17.9844 13.0408 18.3126 12.7126C18.6408 12.3844 19.0859 12.2 19.55 12.2ZM15 8C15.7426 8 16.4548 8.295 16.9799 8.8201C17.505 9.3452 17.8 10.0574 17.8 10.8C17.8 11.5426 17.505 12.2548 16.9799 12.7799C16.4548 13.305 15.7426 13.6 15 13.6C14.2574 13.6 13.5452 13.305 13.0201 12.7799C12.495 12.2548 12.2 11.5426 12.2 10.8C12.2 10.0574 12.495 9.3452 13.0201 8.8201C13.5452 8.295 14.2574 8 15 8Z" fill="white"/>
</svg>
