<svg width="18" height="19" viewBox="0 0 18 19" fill="none" xmlns="http://www.w3.org/2000/svg">
<path d="M9.00002 10.6758C3.84115 10.6758 1 13.1163 1 17.5479C1 17.894 1.28052 18.1745 1.62663 18.1745H16.3734C16.7195 18.1745 17 17.894 17 17.5479C17 13.1165 14.1589 10.6758 9.00002 10.6758ZM2.27606 16.9212C2.52254 13.6078 4.78153 11.9291 9.00002 11.9291C13.2185 11.9291 15.4775 13.6078 15.7242 16.9212H2.27606Z" fill="#376AF5" stroke="#376AF5" stroke-width="0.5"/>
<path d="M9.00235 1C6.63263 1 4.8457 2.82287 4.8457 5.24002C4.8457 7.72795 6.71036 9.75176 9.00235 9.75176C11.2943 9.75176 13.159 7.72795 13.159 5.24022C13.159 2.82287 11.3721 1 9.00235 1ZM9.00235 8.49871C7.40131 8.49871 6.09896 7.03697 6.09896 5.24022C6.09896 3.50946 7.32006 2.25326 9.00235 2.25326C10.6577 2.25326 11.9057 3.53723 11.9057 5.24022C11.9057 7.03697 10.6034 8.49871 9.00235 8.49871Z" fill="#376AF5" stroke="#376AF5" stroke-width="0.5"/>
</svg>
