<svg width="310" height="164" viewBox="0 0 310 164" fill="none" xmlns="http://www.w3.org/2000/svg">
<path d="M8.33861 0H141.661C146.267 0 150 3.73314 150 8.33859V63.3573C150 67.9627 146.267 71.6958 141.661 71.6958H36.6973C32.4505 77.6241 24.066 88.2382 24.066 88.2382C24.066 88.2382 24.6542 78.2123 25.5179 71.6958H8.33861C3.73315 71.6958 0 67.9627 0 63.3573V8.33859C0 3.73314 3.73315 0 8.33861 0Z" fill="#F8F8F8"/>
<path d="M36.686 55.1336C47.3362 50.6761 52.3564 38.429 47.8989 27.7788C43.4414 17.1287 31.1942 12.1085 20.5441 16.566C9.89392 21.0235 4.87376 33.2706 9.33124 43.9208C13.7887 54.5709 26.0359 59.5911 36.686 55.1336Z" fill="white"/>
<path d="M17.7331 36.3961C17.7331 36.3961 15.6614 27.8911 20.5997 24.706C25.538 21.5209 30.8092 20.7921 34.4132 22.6257C39.4089 25.1709 41.4605 32.0432 39.8622 35.848L26.6054 32.5195L17.7331 36.3961Z" fill="#040744"/>
<path d="M31.9225 46.3818H25.7848V52.511H31.9225V46.3818Z" fill="#FFC0BB"/>
<path d="M31.9225 50.0547V46.3818H25.7848V49.5067C27.1047 50.2154 29.0617 50.6229 31.9225 50.0547Z" fill="#F99893"/>
<path d="M41.6011 35.4118C40.9612 35.0962 40.218 35.1536 39.5437 35.4922C39.7761 29.4463 34.835 24.3588 28.614 24.574C22.3931 24.3588 17.4548 29.4463 17.6843 35.4922C17.0129 35.1507 16.2668 35.0962 15.6269 35.4118C14.3988 36.0173 14.0172 37.7504 14.7747 39.2856C15.5322 40.8179 17.142 41.5725 18.3701 40.9671C18.5394 40.8839 18.6944 40.7748 18.8292 40.6514C19.5322 45.65 23.7101 49.3975 28.6111 49.3286C33.5121 49.3975 37.6901 45.65 38.3931 40.6514C38.5308 40.7748 38.6829 40.8839 38.8522 40.9671C40.0803 41.5725 41.6901 40.8207 42.4476 39.2856C43.2109 37.7504 42.8292 36.0173 41.6011 35.4118Z" fill="#FFC0BB"/>
<path d="M32.6313 42.5566C32.3615 43.7675 30.9727 44.7202 29.274 44.7747C27.5725 44.8264 26.1291 43.9598 25.7848 42.7661L32.6313 42.5566Z" fill="white"/>
<path d="M17.6843 35.4923C17.6843 35.4923 25.7187 33.059 29.2338 28.9958C29.2338 28.9958 28.2381 33.8911 27.4978 34.6716C27.7331 34.8265 35.5207 31.0418 36.5796 27.5468C37.6384 24.0518 28.6169 22.7979 28.6169 22.7979C28.6169 22.7979 25.5265 24.1121 25.3687 24.1924C25.2137 24.2699 22.3127 24.6085 21.9799 25.3488C21.5466 26.31 19.5007 26.3961 19.5007 26.3961L18.2094 29.0848L17.3055 31.9141L17.6843 35.4923Z" fill="#040744"/>
<path d="M11.1047 24.4276C12.8781 25.1421 14.9297 25.4721 17.0531 24.8178C21.7418 23.3774 23.5983 23.9369 24.221 24.2899C24.5968 24.5022 25.0416 24.5854 25.4519 24.4506C25.9139 24.2956 26.3443 23.8767 26.2095 22.8207C26.2095 22.8207 26.396 18.3673 22.5768 15.8279C17.8135 17.2655 13.7676 20.353 11.1047 24.4276Z" fill="#040744"/>
<path d="M21.1909 24.1348C21.0502 23.9512 21.0962 23.6872 21.2855 23.5609C22.0689 23.0473 24.0832 21.8881 26.5022 21.7647C26.7289 21.7532 26.9183 21.9368 26.9183 22.1635C26.9183 22.3759 26.7518 22.548 26.5395 22.5595C24.33 22.6743 22.4333 23.7647 21.7188 24.2295C21.5495 24.3414 21.3171 24.3013 21.1909 24.1348Z" fill="#FEB546"/>
<path d="M80.7747 21.4721H54.4161C53.9627 21.4721 53.5925 21.1048 53.5925 20.6485V18.6629C53.5925 18.2095 53.9598 17.8394 54.4161 17.8394H80.7747C81.2281 17.8394 81.5983 18.2066 81.5983 18.6629V20.6485C81.5983 21.1019 81.231 21.4721 80.7747 21.4721Z" fill="white"/>
<path d="M71.6873 31.0561H54.419C53.9656 31.0561 53.5955 30.6888 53.5955 30.2325V28.2469C53.5955 27.7935 53.9627 27.4233 54.419 27.4233H71.6873C72.1407 27.4233 72.5108 27.7906 72.5108 28.2469V30.2325C72.5108 30.6888 72.1435 31.0561 71.6873 31.0561Z" fill="white"/>
<path d="M98.2268 31.0561H76.594C76.1407 31.0561 75.7705 30.6888 75.7705 30.2325V28.2469C75.7705 27.7935 76.1378 27.4233 76.594 27.4233H98.2268C98.6801 27.4233 99.0503 27.7906 99.0503 28.2469V30.2325C99.0503 30.6888 98.683 31.0561 98.2268 31.0561Z" fill="white"/>
<path d="M132.869 21.4721H87.0617C86.6083 21.4721 86.2382 21.1048 86.2382 20.6485V18.6629C86.2382 18.2095 86.6054 17.8394 87.0617 17.8394H132.869C133.323 17.8394 133.693 18.2066 133.693 18.6629V20.6485C133.693 21.1019 133.323 21.4721 132.869 21.4721Z" fill="white"/>
<path d="M132.869 49.8451H54.419C53.9656 49.8451 53.5955 49.4778 53.5955 49.0216V47.0359C53.5955 46.5826 53.9627 46.2124 54.419 46.2124H132.869C133.323 46.2124 133.693 46.5797 133.693 47.0359V49.0216C133.693 49.475 133.323 49.8451 132.869 49.8451Z" fill="white"/>
<path d="M94.1493 40.6427H54.419C53.9656 40.6427 53.5955 40.2754 53.5955 39.8192V37.8335C53.5955 37.3802 53.9627 37.01 54.419 37.01H94.1521C94.6055 37.01 94.9757 37.3773 94.9757 37.8335V39.8192C94.9728 40.2726 94.6055 40.6427 94.1493 40.6427Z" fill="white"/>
<path d="M132.869 40.6427H101.848C101.395 40.6427 101.024 40.2754 101.024 39.8192V37.8335C101.024 37.3802 101.392 37.01 101.848 37.01H132.869C133.323 37.01 133.693 37.3773 133.693 37.8335V39.8192C133.693 40.2726 133.323 40.6427 132.869 40.6427Z" fill="white"/>
<path d="M167.783 78H300.268C304.569 78 308.054 81.4846 308.054 85.7825V140.982C308.054 145.28 304.569 148.764 300.271 148.764H286.512C287.309 154.842 288.357 163.558 287.783 163.558C287.172 163.558 280.496 154.388 276.46 148.764H167.783C163.485 148.764 160 145.28 160 140.982V85.7825C160 81.4846 163.485 78 167.783 78Z" fill="#376AF5"/>
<path d="M268.606 127.377C260.986 119.757 260.986 107.402 268.606 99.7814C276.227 92.1611 288.582 92.1611 296.202 99.7814C303.822 107.402 303.822 119.757 296.202 127.377C288.582 134.998 276.227 134.998 268.606 127.377Z" fill="white"/>
<path d="M279.314 123.411H285.042V129.133H279.314V123.411Z" fill="#FFC0BB"/>
<path d="M279.314 126.841V123.411H285.042V126.328C283.811 126.991 281.986 127.37 279.314 126.841Z" fill="#F99893"/>
<path d="M270.281 113.173C270.878 112.879 271.574 112.931 272.201 113.248C271.986 107.605 276.597 102.856 282.404 103.055C288.21 102.856 292.822 107.601 292.606 113.248C293.233 112.931 293.929 112.879 294.526 113.173C295.673 113.738 296.029 115.355 295.323 116.788C294.615 118.219 293.112 118.921 291.966 118.356C291.806 118.277 291.666 118.176 291.535 118.062C290.878 122.729 286.979 126.226 282.404 126.161C277.828 126.226 273.929 122.729 273.272 118.062C273.145 118.176 273.001 118.277 272.841 118.356C271.695 118.921 270.193 118.219 269.484 116.788C268.779 115.355 269.135 113.738 270.281 113.173Z" fill="#FFC0BB"/>
<path d="M289.379 100.818C289.379 100.818 286.506 98.3853 279.967 98.7772C273.432 99.1691 272.188 102.582 271.816 107.451L272.198 113.248C272.198 113.248 273.896 111.504 276.104 106.664C276.104 106.664 279.762 110.769 281.355 110.283C282.949 109.796 280.751 106.841 280.751 106.841C280.751 106.841 288.207 113.255 292.596 113.245C292.596 113.245 294.922 105.737 291.659 102.984C291.659 102.984 294.115 103.101 294.246 102.618C294.376 102.134 293.073 101.413 290.712 101.684C290.712 101.684 292.394 98.3918 291.453 98.0489C290.522 97.7092 289.379 100.818 289.379 100.818Z" fill="#07085B"/>
<path d="M278.654 119.839C278.906 120.969 280.202 121.86 281.79 121.909C283.377 121.958 284.726 121.148 285.046 120.035L278.654 119.839Z" fill="white"/>
<path d="M179.282 97.2979H255.405C255.83 97.2979 256.172 96.955 256.172 96.5304V94.6754C256.172 94.2509 255.83 93.908 255.405 93.908H179.282C178.857 93.908 178.514 94.2509 178.514 94.6754V96.5304C178.511 96.955 178.857 97.2979 179.282 97.2979Z" fill="white"/>
<path d="M238.602 106.246H255.405C255.83 106.246 256.172 105.903 256.172 105.479V103.624C256.172 103.199 255.83 102.856 255.405 102.856H238.602C238.178 102.856 237.835 103.199 237.835 103.624V105.479C237.832 105.9 238.178 106.246 238.602 106.246Z" fill="white"/>
<path d="M179.281 106.246H230.144C230.568 106.246 230.911 105.903 230.911 105.479V103.624C230.911 103.199 230.568 102.856 230.144 102.856H179.281C178.857 102.856 178.514 103.199 178.514 103.624V105.479C178.511 105.9 178.857 106.246 179.281 106.246Z" fill="white"/>
<path d="M216.822 115.191H255.405C255.83 115.191 256.172 114.849 256.172 114.424V112.569C256.172 112.144 255.83 111.802 255.405 111.802H216.822C216.398 111.802 216.055 112.144 216.055 112.569V114.424C216.055 114.849 216.398 115.191 216.822 115.191Z" fill="white"/>
<path d="M179.282 115.191H209.419C209.843 115.191 210.186 114.849 210.186 114.424V112.569C210.186 112.144 209.843 111.802 209.419 111.802H179.282C178.857 111.802 178.514 112.144 178.514 112.569V114.424C178.511 114.849 178.857 115.191 179.282 115.191Z" fill="white"/>
<path d="M179.282 124.14H255.405C255.83 124.14 256.172 123.797 256.172 123.372V121.517C256.172 121.093 255.83 120.75 255.405 120.75H179.282C178.857 120.75 178.514 121.093 178.514 121.517V123.372C178.511 123.797 178.857 124.14 179.282 124.14Z" fill="white"/>
</svg>
