<svg width="21" height="20" viewBox="0 0 21 20" fill="none" xmlns="http://www.w3.org/2000/svg">
<path d="M0.00857142 18L18 9L0.00857142 0L0 7L12.8571 9L0 11L0.00857142 18Z" fill="#666666"/>
<circle cx="15" cy="14" r="6" fill="white"/>
<path d="M17.1379 15.0602L15.4647 13.8053V11.2492C15.4647 10.9922 15.257 10.7844 15 10.7844C14.743 10.7844 14.5352 10.9922 14.5352 11.2492V14.0377C14.5352 14.1841 14.604 14.3222 14.7211 14.4095L16.5801 15.8038C16.6638 15.8666 16.7614 15.8968 16.8585 15.8968C17.0003 15.8968 17.1397 15.8331 17.2308 15.7104C17.3851 15.5054 17.3433 15.214 17.1379 15.0602Z" fill="#666666"/>
<path d="M15 8C11.6914 8 9 10.6914 9 14C9 17.3086 11.6914 20 15 20C18.3086 20 21 17.3086 21 14C21 10.6914 18.3086 8 15 8ZM15 19.0705C12.2045 19.0705 9.92951 16.7955 9.92951 14C9.92951 11.2045 12.2045 8.92951 15 8.92951C17.796 8.92951 20.0705 11.2045 20.0705 14C20.0705 16.7955 17.7955 19.0705 15 19.0705Z" fill="#666666"/>
</svg>
